#N canvas 1163 153 650 608 12;
#X obj 384 78 phasor~;
#X obj 588 83 vsl 19 162 0 127 0 0 empty empty empty 0 -9 0 12 #fcfcfc #000000 #000000 0 1;
#X obj 513 78 osc~;
#X floatatom 514 16 5 0 0 0 - - - 0;
#X floatatom 384 12 5 0 0 0 - - - 0;
#X floatatom 590 298 5 0 0 0 - - - 0;
#X obj 416 282 dac~;
#X obj 515 133 +~ 1;
#X obj 239 199 snapshot~;
#X obj 236 85 metro;
#X obj 234 32 tgl 19 0 empty empty empty 0 -10 0 12 #fcfcfc #000000 #000000 0 1;
#X floatatom 293 29 5 0 0 0 - - - 0;
#X floatatom 245 259 5 0 0 0 - - - 0;
#X obj 391 147 *~;
#X obj 401 210 *~;
#X obj 40 343 connect localhost 8000;
#X obj 57 178 prepend send /color;
#X obj 82 460 sendOSC;
#X obj 489 364 prepend send /volume;
#X obj 236 304 prepend send /sinosc;
#X connect 0 0 13 0;
#X connect 1 0 5 0;
#X connect 2 0 7 0;
#X connect 3 0 2 0;
#X connect 4 0 0 0;
#X connect 5 0 14 1;
#X connect 7 0 13 1;
#X connect 7 0 8 0;
#X connect 8 0 12 0;
#X connect 9 0 8 0;
#X connect 10 0 9 0;
#X connect 11 0 9 1;
#X connect 13 0 14 0;
#X connect 14 0 6 0;
